<svg width="48" height="48" viewBox="0 0 48 48" fill="none" xmlns="http://www.w3.org/2000/svg">
<g clip-path="url(#clip0_32_776)">
<g clip-path="url(#clip1_32_776)">
<g clip-path="url(#clip2_32_776)">
<g clip-path="url(#clip3_32_776)">
<path d="M35.0769 46.0948V47.9409H12.9231V46.0948C12.9231 45.0775 13.752 44.2486 14.7692 44.2486H18.4855C18.5314 43.1495 18.9053 42.0892 19.5591 41.2044C20.2129 40.3197 21.1166 39.6509 22.1538 39.2843V17.6382C21.6572 17.3272 21.2476 16.8953 20.9635 16.3829C20.6793 15.8704 20.5299 15.2943 20.5292 14.7083H27.4708C27.4708 15.9452 26.8191 17.0234 25.8462 17.6382V39.2825C26.8834 39.6491 27.7871 40.3178 28.4409 41.2026C29.0947 42.0874 29.4686 43.1476 29.5145 44.2468H33.2308C34.248 44.2486 35.0769 45.0775 35.0769 46.0948ZM48 29.4775C46.6468 33.288 43.0431 36.0369 38.7692 36.0369C34.4954 36.0369 30.8917 33.2862 29.5385 29.4775H31.6689L37.9052 12.9489C38.1748 12.2289 39.3618 12.2289 39.6332 12.9489L45.8695 29.4775H48ZM43.896 29.4775L38.7692 15.8917L33.6425 29.4794H43.896V29.4775ZM9.23077 11.0363C9.62586 11.0339 10.0097 10.9045 10.3256 10.6671C10.6414 10.4297 10.8725 10.097 10.9846 9.71816C11.5957 9.48554 12.2215 9.1717 12.864 8.84677C14.2763 8.13416 15.8769 7.3237 17.5385 7.3237C19.1335 7.3237 20.1305 8.06031 20.7009 8.688C20.6788 8.84677 20.6529 9.00554 20.6529 9.16985C20.6529 10.0576 21.0056 10.9089 21.6333 11.5366C22.261 12.1643 23.1123 12.5169 24 12.5169C24.8877 12.5169 25.739 12.1643 26.3667 11.5366C26.9944 10.9089 27.3471 10.0576 27.3471 9.16985C27.3471 9.00554 27.3212 8.84862 27.2991 8.68985C27.8677 8.064 28.8646 7.3237 30.4615 7.3237C32.1231 7.3237 33.7237 8.13231 35.1342 8.84493C35.7785 9.16985 36.4043 9.4837 37.0154 9.71631C37.1275 10.0952 37.3586 10.4279 37.6744 10.6653C37.9903 10.9026 38.3741 11.0321 38.7692 11.0345C39.2638 11.0345 39.738 10.838 40.0877 10.4883C40.4374 10.1386 40.6338 9.66438 40.6338 9.16985C40.6338 8.67532 40.4374 8.20105 40.0877 7.85137C39.738 7.50169 39.2638 7.30524 38.7692 7.30524C38.2375 7.30524 37.7631 7.53416 37.4234 7.89231C36.9302 7.6773 36.4444 7.44579 35.9668 7.19816C34.3717 6.39139 32.5643 5.47754 30.4615 5.47754C28.6228 5.47754 27.3415 6.17724 26.472 6.93047C26.0776 6.49659 25.5759 6.17437 25.0172 5.99631C25.7058 5.62708 26.1895 4.9237 26.1895 4.09108C26.1895 2.88185 24 0.059082 24 0.059082C24 0.059082 21.8105 2.88185 21.8105 4.09108C21.8105 4.92554 22.2942 5.62708 22.9828 5.99631C22.4238 6.17373 21.9219 6.49605 21.528 6.93047C20.6585 6.17724 19.3772 5.47754 17.5385 5.47754C15.4357 5.47754 13.6265 6.39139 12.0314 7.19816C11.5551 7.44726 11.0699 7.6788 10.5766 7.89231C10.3214 7.62076 9.99031 7.43228 9.62651 7.35139C9.2627 7.27049 8.88298 7.30092 8.5367 7.43871C8.19042 7.57651 7.89361 7.8153 7.68485 8.12403C7.47609 8.43277 7.36505 8.79716 7.36615 9.16985C7.36591 9.41487 7.41396 9.65754 7.50756 9.88398C7.60116 10.1104 7.73846 10.3162 7.91163 10.4895C8.0848 10.6629 8.29044 10.8004 8.51679 10.8942C8.74313 10.988 8.98575 11.0363 9.23077 11.0363ZM9.23077 36.0388C4.95692 36.0388 1.35323 33.288 0 29.4794H2.13046L8.36677 12.9508C8.63631 12.2308 9.82338 12.2308 10.0948 12.9508L16.3311 29.4794H18.4615C17.1083 33.288 13.5046 36.0388 9.23077 36.0388ZM14.3575 29.4775L9.23077 15.8917L4.104 29.4794H14.3575V29.4775Z" fill="black" stroke="black" stroke-width="0.528"/>
</g>
</g>
</g>
</g>
<defs>
<clipPath id="clip0_32_776">
<rect width="48" height="48" fill="white"/>
</clipPath>
<clipPath id="clip1_32_776">
<rect width="48" height="48" fill="white"/>
</clipPath>
<clipPath id="clip2_32_776">
<rect width="48" height="48" fill="white"/>
</clipPath>
<clipPath id="clip3_32_776">
<rect width="48" height="48" fill="white"/>
</clipPath>
</defs>
</svg>
