<svg width="48" height="48" viewBox="0 0 48 48" fill="none" xmlns="http://www.w3.org/2000/svg">
<g clip-path="url(#clip0_32_813)">
<g clip-path="url(#clip1_32_813)">
<g clip-path="url(#clip2_32_813)">
<g clip-path="url(#clip3_32_813)">
<path d="M31.6 14.3866C31.4236 14.3859 31.2491 14.3502 31.0866 14.2815C30.9241 14.2128 30.7768 14.1126 30.6533 13.9866L20.7467 4.07996C20.4974 3.82536 20.3594 3.48214 20.3632 3.12582C20.3669 2.7695 20.5121 2.42927 20.7667 2.17996C21.0213 1.93066 21.3645 1.79271 21.7208 1.79646C22.0771 1.80021 22.4174 1.94536 22.6667 2.19996L32.5867 12.1066C32.835 12.3564 32.9744 12.6944 32.9744 13.0466C32.9744 13.3989 32.835 13.7368 32.5867 13.9866C32.4585 14.1175 32.3048 14.2206 32.135 14.2894C31.9652 14.3582 31.7831 14.3913 31.6 14.3866ZM14.2533 31.72C13.9036 31.7185 13.5684 31.5796 13.32 31.3333L3.40001 21.4266C3.14894 21.1703 3.01 20.8246 3.01375 20.4658C3.0175 20.107 3.16363 19.7644 3.42001 19.5133C3.67639 19.2622 4.022 19.1233 4.38082 19.127C4.73964 19.1308 5.08227 19.2769 5.33334 19.5333L15.24 29.44C15.4281 29.6265 15.5563 29.8647 15.6084 30.1244C15.6605 30.3841 15.6341 30.6533 15.5325 30.8979C15.431 31.1425 15.2589 31.3513 15.0382 31.4977C14.8175 31.6441 14.5582 31.7215 14.2933 31.72H14.2533ZM27.52 41.3333L28.1867 43.6933C28.2334 43.868 28.2396 44.0512 28.2048 44.2287C28.1699 44.4062 28.095 44.5733 27.9856 44.7174C27.8763 44.8615 27.7354 44.9787 27.5738 45.06C27.4123 45.1413 27.2342 45.1847 27.0533 45.1866H4.89334C4.71247 45.1847 4.53444 45.1413 4.37286 45.06C4.21128 44.9787 4.07044 44.8615 3.96108 44.7174C3.85173 44.5733 3.77676 44.4062 3.74191 44.2287C3.70706 44.0512 3.71325 43.868 3.76001 43.6933L4.44001 41.3333C4.565 40.9124 4.82416 40.5439 5.178 40.2839C5.53185 40.0239 5.96098 39.8868 6.40001 39.8933H25.5467C25.9869 39.8882 26.417 40.0257 26.7727 40.2853C27.1284 40.5448 27.3905 40.9125 27.52 41.3333ZM42.92 37.44L24.5733 19.28L28.5733 15.28L19.36 5.99996L7.44001 17.92L16.68 27.1733L20.96 22.9066L39.28 41.04C39.517 41.2793 39.7996 41.4687 40.1111 41.5969C40.4225 41.7252 40.7565 41.7897 41.0933 41.7866C41.5991 41.7916 42.0949 41.646 42.5175 41.3682C42.9401 41.0903 43.2704 40.693 43.4664 40.2267C43.6623 39.7605 43.715 39.2464 43.6177 38.7501C43.5204 38.2538 43.2775 37.7977 42.92 37.44Z" fill="black"/>
</g>
</g>
</g>
</g>
<defs>
<clipPath id="clip0_32_813">
<rect width="48" height="48" fill="white"/>
</clipPath>
<clipPath id="clip1_32_813">
<rect width="48" height="48" fill="white"/>
</clipPath>
<clipPath id="clip2_32_813">
<rect width="48" height="48" fill="white"/>
</clipPath>
<clipPath id="clip3_32_813">
<rect width="48" height="48" fill="white"/>
</clipPath>
</defs>
</svg>
