<svg width="48" height="48" viewBox="0 0 48 48" fill="none" xmlns="http://www.w3.org/2000/svg">
<g clip-path="url(#clip0_32_794)">
<g clip-path="url(#clip1_32_794)">
<g clip-path="url(#clip2_32_794)">
<g clip-path="url(#clip3_32_794)">
<path d="M21.1411 42.0393C20.4995 41.5579 19.8449 40.9849 19.1974 40.3372C19.1481 40.2877 12.7892 33.9138 9.36417 30.4848C9.2215 30.3419 9.04772 30.2339 8.85641 30.1693C8.6651 30.1047 8.46143 30.0852 8.26134 30.1124C8.06125 30.1396 7.87015 30.2126 7.70298 30.3259C7.53581 30.4391 7.3971 30.5895 7.29768 30.7653C6.89964 31.4688 6.73986 32.1111 6.82284 32.6741C6.96513 33.6404 7.76624 34.6104 8.92202 35.7661L15.8196 42.7139C16.9743 43.8686 17.9414 44.6669 18.9082 44.8094C19.0076 44.8239 19.108 44.8311 19.2084 44.831C19.762 44.831 20.3823 44.6172 21.0525 44.1957C21.2323 44.0826 21.3818 43.9275 21.4883 43.7438C21.5948 43.56 21.6549 43.3531 21.6636 43.1409C21.6724 42.9287 21.6294 42.7175 21.5384 42.5256C21.4474 42.3337 21.311 42.1668 21.1411 42.0393ZM37.3239 25.8516L36.9398 25.3976C36.8379 25.2757 36.7347 25.1549 36.6302 25.0353L36.6177 25.0214C36.2949 24.6641 35.9628 24.3153 35.6217 23.9754L35.4959 23.8495C35.4866 23.8402 35.4772 23.8311 35.4676 23.8222C32.3789 20.9126 29.6266 20.8785 26.7119 20.8424C24.8464 20.8194 23.0842 20.7976 21.1985 20.1015C19.3521 19.4198 17.6429 17.9952 16.5092 16.1929C15.4471 14.5045 15.0654 12.7092 15.488 11.3913C15.5031 11.3441 15.5218 11.2918 15.5437 11.2354L17.3585 9.42076C18.3831 8.39606 18.3831 6.72877 17.3584 5.70386L15.3524 3.69783C15.2308 3.5762 15.0864 3.47973 14.9275 3.41391C14.7686 3.34809 14.5983 3.31421 14.4263 3.31421C14.2543 3.31421 14.084 3.34809 13.9251 3.41391C13.7662 3.47973 13.6218 3.5762 13.5002 3.69783L0.383453 16.8145C0.137923 17.0602 0 17.3934 0 17.7407C0 18.0881 0.137923 18.4212 0.383453 18.6669L2.38948 20.6728C2.88591 21.1692 3.54599 21.4427 4.24788 21.4427C4.94977 21.4427 5.60986 21.1694 6.10628 20.6729L7.73533 19.0439C8.665 20.7284 8.81074 22.3416 8.94014 23.7741C9.07321 25.2454 9.16928 26.3085 10.0299 27.169C12.7588 29.898 21.1358 38.2948 21.1888 38.348C23.1338 40.2928 24.8556 41.2384 26.452 41.2384C26.6067 41.2385 26.7614 41.2294 26.9151 41.2112C28.3085 41.047 29.7404 40.1631 31.5579 38.3454L35.6553 34.2479C37.8878 32.0154 38.825 30.5971 38.8901 29.3525C38.9404 28.3888 38.4368 27.2541 37.3502 25.8837C37.3416 25.8729 37.3328 25.8622 37.3239 25.8516Z" fill="black"/>
<path d="M47.6167 16.6696L34.4998 3.55258C33.9882 3.04107 33.159 3.04107 32.6476 3.55258L30.6417 5.55861C29.6169 6.58342 29.6169 8.25081 30.6417 9.27562L31.2396 9.87368C29.2189 11.1408 26.2079 12.5644 22.8813 12.5646C21.9109 12.5646 20.9596 12.4394 20.0493 12.1912C19.8081 12.1237 19.5526 12.1267 19.3131 12.2C19.0736 12.2732 18.8602 12.4137 18.698 12.6046C18.5359 12.7955 18.432 13.0289 18.3985 13.2771C18.365 13.5253 18.4034 13.7779 18.5091 14.005C19.0542 15.1765 20.341 16.7843 22.174 17.4611C23.6043 17.9893 25.2017 18.0091 26.7467 18.0282C29.9341 18.0676 33.901 18.1169 38.0927 22.4677C38.2653 22.6469 38.4854 22.7733 38.7273 22.8319C38.9691 22.8906 39.2227 22.8791 39.4582 22.7988C39.6938 22.7185 39.9016 22.5728 40.0573 22.3787C40.2131 22.1846 40.3103 21.9502 40.3376 21.7028C40.4327 20.8419 40.5826 20.1111 40.8037 19.4377L41.894 20.5278C42.3903 21.0242 43.0504 21.2975 43.7525 21.2975C44.4544 21.2975 45.1144 21.0243 45.6108 20.5277L47.6168 18.5216C48.1283 18.0103 48.1283 17.181 47.6167 16.6696Z" fill="black"/>
</g>
</g>
</g>
</g>
<defs>
<clipPath id="clip0_32_794">
<rect width="48" height="48" fill="white"/>
</clipPath>
<clipPath id="clip1_32_794">
<rect width="48" height="48" fill="white"/>
</clipPath>
<clipPath id="clip2_32_794">
<rect width="48" height="48" fill="white"/>
</clipPath>
<clipPath id="clip3_32_794">
<rect width="48" height="48" fill="white"/>
</clipPath>
</defs>
</svg>
