<svg width="24" height="24" viewBox="0 0 24 24" fill="none" xmlns="http://www.w3.org/2000/svg">
<g clip-path="url(#clip0_32_974)">
<g clip-path="url(#clip1_32_974)">
<g clip-path="url(#clip2_32_974)">
<g clip-path="url(#clip3_32_974)">
<path fill-rule="evenodd" clip-rule="evenodd" d="M3.18008 10.9445H4.92988V7.24941C4.92988 5.25625 5.7457 3.44394 7.0584 2.13086V2.1291C8.37168 0.81582 10.1844 0 12.1789 0C14.1719 0 15.9842 0.81582 17.2975 2.1291L17.2994 2.13086C18.6121 3.44394 19.4279 5.25625 19.4279 7.24941V10.9445H20.8217C20.9713 10.945 21.1147 11.0046 21.2205 11.1104C21.3263 11.2162 21.386 11.3595 21.3865 11.5092V23.4354C21.386 23.585 21.3263 23.7283 21.2205 23.8341C21.1147 23.9399 20.9713 23.9995 20.8217 24H3.18008C3.03045 23.9995 2.88708 23.9399 2.78125 23.8341C2.67543 23.7283 2.61575 23.585 2.61523 23.4354V11.5092C2.61575 11.3595 2.67543 11.2162 2.78125 11.1104C2.88708 11.0046 3.03045 10.945 3.18008 10.9445ZM7.74629 10.9445H16.6109V7.20918C16.6109 5.99043 16.1121 4.88164 15.3098 4.07832L15.3088 4.0791C14.5059 3.27559 13.3973 2.77656 12.1789 2.77656C10.96 2.77656 9.85137 3.27539 9.04746 4.07832C8.24492 4.88164 7.74629 5.99043 7.74629 7.20918V10.9445ZM12.2146 17.4703L13.1094 21.599L10.6568 21.6094L11.3766 17.4252C10.7064 17.2104 10.2207 16.5824 10.2207 15.841C10.2207 15.5264 10.31 15.2183 10.4782 14.9524C10.6464 14.6865 10.8866 14.4738 11.1709 14.339C11.4551 14.2042 11.7718 14.1529 12.0841 14.1909C12.3964 14.2289 12.6915 14.3547 12.9351 14.5538C13.1788 14.7529 13.3609 15.017 13.4604 15.3154C13.5599 15.6139 13.5726 15.9345 13.4972 16.2399C13.4217 16.5453 13.2612 16.8231 13.0341 17.0409C12.8071 17.2587 12.5229 17.4076 12.2146 17.4703Z" fill="#163133"/>
</g>
</g>
</g>
</g>
<defs>
<clipPath id="clip0_32_974">
<rect width="24" height="24" fill="white"/>
</clipPath>
<clipPath id="clip1_32_974">
<rect width="24" height="24" fill="white"/>
</clipPath>
<clipPath id="clip2_32_974">
<rect width="24" height="24" fill="white"/>
</clipPath>
<clipPath id="clip3_32_974">
<rect width="24" height="24" fill="white"/>
</clipPath>
</defs>
</svg>
