<svg width="24" height="24" viewBox="0 0 24 24" fill="none" xmlns="http://www.w3.org/2000/svg">
<g clip-path="url(#clip0_32_929)">
<g clip-path="url(#clip1_32_929)">
<g clip-path="url(#clip2_32_929)">
<g clip-path="url(#clip3_32_929)">
<path d="M19.9352 13.4779C21.4591 13.4779 22.6947 12.2431 22.6947 10.7192C22.6947 9.19525 21.459 7.95957 19.9352 7.95957C18.4116 7.95957 17.176 9.19525 17.176 10.7192C17.176 12.2431 18.4116 13.4779 19.9352 13.4779ZM23.4685 16.1369C23.3455 15.3981 22.7348 14.364 22.2725 13.9021C22.2116 13.8408 21.9395 13.8267 21.866 13.8722C21.3039 14.2179 20.6437 14.4213 19.9352 14.4213C19.2274 14.4213 18.5672 14.2179 18.0051 13.8722C17.9313 13.8267 17.6595 13.8408 17.5986 13.9021C17.4694 14.0313 17.3284 14.2033 17.1909 14.4028C17.5628 15.1031 17.8578 15.847 17.9643 16.4876C18.0707 17.1298 18.0361 17.7378 17.8641 18.292C18.4752 18.5132 19.2081 18.6102 19.9351 18.6102C21.8315 18.6102 23.7721 17.9527 23.4685 16.1369ZM11.4291 12.3138C13.8988 12.3138 15.9011 10.3115 15.9011 7.84182C15.9011 5.37292 13.8988 3.37061 11.4291 3.37061C8.95982 3.37061 6.95826 5.37292 6.95826 7.84182C6.95826 10.3115 8.95977 12.3138 11.4291 12.3138ZM15.2158 12.9987C15.1187 12.9021 14.6781 12.8774 14.5582 12.9516C13.6466 13.5125 12.5768 13.8408 11.4291 13.8408C10.2823 13.8408 9.21191 13.5125 8.30076 12.9516C8.18099 12.8774 7.74032 12.9021 7.64329 12.9987C6.8923 13.7489 5.90254 15.426 5.70341 16.6216C5.21244 19.5666 8.35813 20.6298 11.4291 20.6298C14.5009 20.6298 17.6466 19.5666 17.1556 16.6216C16.9565 15.426 15.9667 13.7489 15.2158 12.9987ZM3.06482 13.4779C4.58835 13.4779 5.82398 12.2431 5.82398 10.7192C5.82398 9.19525 4.58835 7.95957 3.06482 7.95957C1.54087 7.95957 0.305241 9.19525 0.305241 10.7192C0.305241 12.2431 1.54087 13.4779 3.06482 13.4779ZM4.89505 16.4876C5.00821 15.8148 5.32748 15.0227 5.72774 14.2901C5.61618 14.1377 5.50466 14.005 5.40173 13.9021C5.34083 13.8408 5.06905 13.8267 4.99523 13.8722C4.43315 14.2179 3.77291 14.4213 3.06482 14.4213C2.35663 14.4213 1.69598 14.2179 1.13437 13.8722C1.06087 13.8267 0.788335 13.8408 0.727444 13.9021C0.263991 14.364 -0.34515 15.3981 -0.468525 16.1369C-0.771712 17.9527 1.16854 18.6101 3.06482 18.6101C3.74155 18.6101 4.42494 18.5268 5.00821 18.3364C4.82441 17.7708 4.78551 17.1487 4.89505 16.4876Z" fill="#163133"/>
</g>
</g>
</g>
</g>
<defs>
<clipPath id="clip0_32_929">
<rect width="24" height="24" fill="white" transform="translate(-0.5)"/>
</clipPath>
<clipPath id="clip1_32_929">
<rect width="24" height="24" fill="white" transform="translate(-0.5)"/>
</clipPath>
<clipPath id="clip2_32_929">
<rect width="24" height="24" fill="white" transform="translate(-0.5)"/>
</clipPath>
<clipPath id="clip3_32_929">
<rect width="24" height="24" fill="white" transform="translate(-0.5)"/>
</clipPath>
</defs>
</svg>
