<svg width="24" height="24" viewBox="0 0 24 24" fill="none" xmlns="http://www.w3.org/2000/svg">
<g clip-path="url(#clip0_32_960)">
<g clip-path="url(#clip1_32_960)">
<path d="M20.9285 21.0087C21.0103 21.0087 21.0911 20.9904 21.1649 20.9552C21.2387 20.9199 21.3037 20.8687 21.3552 20.805C21.4066 20.7414 21.4432 20.6671 21.4622 20.5876C21.4812 20.508 21.4822 20.4252 21.4651 20.3452L21.1188 18.7047C21.2223 18.6044 21.304 18.4839 21.3587 18.3506C21.4134 18.2173 21.44 18.0741 21.4368 17.93C21.4336 17.786 21.4006 17.6441 21.34 17.5134C21.2794 17.3827 21.1924 17.2659 21.0845 17.1704V11.4755L19.6959 12.3344V17.1687C19.5875 17.264 19.5001 17.3809 19.4391 17.5118C19.3782 17.6427 19.3451 17.7848 19.3418 17.9291C19.3386 18.0735 19.3654 18.2169 19.4204 18.3504C19.4755 18.4839 19.5576 18.6045 19.6616 18.7047L19.3171 20.3452C19.3002 20.4253 19.3015 20.5082 19.3207 20.5877C19.34 20.6673 19.3767 20.7415 19.4283 20.8051C19.4798 20.8686 19.5449 20.9199 19.6188 20.9551C19.6927 20.9903 19.7735 21.0086 19.8553 21.0087H20.9268H20.9285ZM21.3982 8.15151L12.3605 2.55779C12.1017 2.39838 11.8038 2.31396 11.4999 2.31396C11.196 2.31396 10.8981 2.39838 10.6393 2.55779L1.60162 8.15151C1.48251 8.22487 1.38416 8.3275 1.31595 8.44964C1.24773 8.57177 1.21191 8.70933 1.21191 8.84922C1.21191 8.98911 1.24773 9.12668 1.31595 9.24881C1.38416 9.37094 1.48251 9.47358 1.60162 9.54694L10.6393 15.1407C10.8977 15.3012 11.1958 15.3863 11.4999 15.3863C11.8041 15.3863 12.1022 15.3012 12.3605 15.1407L21.3982 9.54694C21.5173 9.47358 21.6157 9.37094 21.6839 9.24881C21.7521 9.12668 21.7879 8.98911 21.7879 8.84922C21.7879 8.70933 21.7521 8.57177 21.6839 8.44964C21.6157 8.3275 21.5173 8.22487 21.3982 8.15151ZM11.4999 16.7744C10.9372 16.775 10.3856 16.6182 9.90734 16.3218L4.63591 13.0578V18.6772C4.63591 20.3401 7.71134 21.6875 11.4999 21.6875C15.2885 21.6875 18.3622 20.3401 18.3622 18.6772V13.0578L13.0942 16.3218C12.6142 16.6184 12.0639 16.7744 11.4999 16.7744Z" fill="#163133"/>
</g>
</g>
<defs>
<clipPath id="clip0_32_960">
<rect width="24" height="24" fill="white" transform="translate(-0.5)"/>
</clipPath>
<clipPath id="clip1_32_960">
<rect width="24" height="24" fill="white" transform="translate(-0.5)"/>
</clipPath>
</defs>
</svg>
