<svg width="29" height="29" viewBox="0 0 29 29" fill="none" xmlns="http://www.w3.org/2000/svg">
<g clip-path="url(#clip0_32_1090)">
<path d="M0 13.6071H7.03382C6.91357 18.7333 5.45962 19.3152 3.63349 19.4813L2.92929 19.5686V25.2055L3.741 25.162C6.12559 25.0278 8.76195 24.5979 10.5208 22.4266C12.0627 20.5231 12.7424 17.4134 12.7424 12.6397V3.79395H0V13.6071ZM16.2576 3.79395V13.6071H23.1975C23.0773 18.7333 21.6703 19.3152 19.8442 19.4813L19.1869 19.5686V25.2055L19.9517 25.162C22.3363 25.0278 24.9962 24.5979 26.7551 22.4266C28.2968 20.5231 29 17.4134 29 12.6397V3.79395H16.2576Z" fill="#B1915A"/>
</g>
<defs>
<clipPath id="clip0_32_1090">
<rect width="29" height="29" fill="white"/>
</clipPath>
</defs>
</svg>
